<?xml version="1.0" encoding="UTF-8"?> <svg xmlns="http://www.w3.org/2000/svg" width="100" height="100" viewBox="0 0 100 100" fill="none"><path d="M87.6695 60.5808L53.4695 87.8284L34.4219 97.3519L47.9647 86.5618L68.6219 70.1046C69.7933 69.1999 70.0219 67.6189 69.2981 65.3713C68.5647 63.1237 67.2981 61.476 65.4981 60.4379L49.3933 51.1332L68.4409 41.6094L84.5457 50.9141C86.3457 51.9522 87.6124 53.5999 88.3457 55.8475C89.0695 58.0951 88.8409 59.676 87.6695 60.5808Z" fill="url(#paint0_linear_1_3050)"></path><path d="M53.4719 87.8301C53.1767 88.0586 52.8624 88.2206 52.5195 88.3063L53.4719 87.8301Z" fill="url(#paint1_linear_1_3050)"></path><path d="M68.6246 70.1057L47.9674 86.5628L34.4246 97.3529C33.6627 97.9529 32.7294 98.0862 31.6246 97.7624C30.5104 97.4386 29.4437 96.7053 28.3961 95.5434C27.358 94.3914 26.5485 93.0676 25.958 91.5723C25.3675 90.0771 25.1388 88.6961 25.2817 87.4295L28.6055 62.9914L15.7198 55.5533C14.0532 54.5914 12.8246 53.0199 12.0341 50.858C11.2341 48.6866 11.3198 47.0866 12.2912 46.058L43.3674 12.7152C43.5388 12.5342 43.7198 12.3914 43.9198 12.2676L43.9865 12.2295L44.2722 12.0961C44.7865 11.8676 45.3865 11.8295 46.0723 11.9533C47.177 12.1533 48.3198 12.8295 49.5007 13.9914C50.015 14.4961 50.4627 15.0295 50.8532 15.6009C51.3675 16.3342 51.7865 17.1342 52.1008 17.9914C52.6532 19.5057 52.8626 20.8961 52.7198 22.1723L49.396 51.1342L65.5008 60.439C67.3008 61.4771 68.5675 63.1247 69.3008 65.3723C70.0246 67.6199 69.7961 69.2009 68.6246 70.1057Z" fill="url(#paint2_linear_1_3050)"></path><path d="M71.7687 12.6476L68.4449 41.6095L49.3972 51.1333L52.7211 22.1714C52.8639 20.8952 52.6544 19.5048 52.102 17.9905C51.7877 17.1333 51.3687 16.3333 50.8544 15.6C50.4639 15.0286 50.0163 14.4952 49.502 13.9905C48.3211 12.8286 47.1782 12.1524 46.0734 11.9524C45.3877 11.8286 44.7877 11.8667 44.2734 12.0953L63.0734 2.68575C63.6544 2.36194 64.3306 2.27623 65.1211 2.42861C66.2258 2.62861 67.3687 3.3048 68.5496 4.46671C69.7211 5.61909 70.5877 6.95242 71.1496 8.46671C71.702 9.98096 71.9115 11.3714 71.7687 12.6476Z" fill="url(#paint3_linear_1_3050)"></path><path d="M63.1751 2.62891L63.0703 2.68605L63.1751 2.62891Z" fill="url(#paint4_linear_1_3050)"></path><defs><linearGradient id="paint0_linear_1_3050" x1="34.4219" y1="69.4806" x2="88.7588" y2="69.4806" gradientUnits="userSpaceOnUse"><stop stop-color="#B34B00"></stop><stop offset="1" stop-color="#FF6B00"></stop></linearGradient><linearGradient id="paint1_linear_1_3050" x1="52.5195" y1="88.0682" x2="53.4719" y2="88.0682" gradientUnits="userSpaceOnUse"><stop stop-color="#FF6B00"></stop><stop offset="1" stop-color="#FFB580"></stop></linearGradient><linearGradient id="paint2_linear_1_3050" x1="11.4922" y1="54.9089" x2="69.7139" y2="54.9089" gradientUnits="userSpaceOnUse"><stop stop-color="#FF6B00"></stop><stop offset="1" stop-color="#FFB580"></stop></linearGradient><linearGradient id="paint3_linear_1_3050" x1="44.2734" y1="26.7444" x2="71.8122" y2="26.7444" gradientUnits="userSpaceOnUse"><stop stop-color="#B34B00"></stop><stop offset="1" stop-color="#FF6B00"></stop></linearGradient><linearGradient id="paint4_linear_1_3050" x1="63.0703" y1="2.65748" x2="63.1751" y2="2.65748" gradientUnits="userSpaceOnUse"><stop stop-color="#FF6B00"></stop><stop offset="1" stop-color="#FFB580"></stop></linearGradient></defs></svg> 