<?xml version="1.0" encoding="UTF-8"?> <svg xmlns="http://www.w3.org/2000/svg" width="100" height="100" viewBox="0 0 100 100" fill="none"><path d="M79.0163 37.6852V66.926C79.0163 68.3056 78.6089 69.2315 77.7941 69.6945C76.9792 70.1574 75.9699 70.0463 74.7662 69.3519C73.5625 68.6482 72.5532 67.6019 71.7384 66.2037C70.9236 64.7963 70.5162 63.3982 70.5162 62.0186V44.4723L25.8958 69.9167L17.0069 74.9908L32.294 83.8148C33.4977 84.5093 34.507 85.5556 35.3218 86.963C36.1367 88.3704 36.544 89.7593 36.544 91.1389C36.544 92.5186 36.1367 93.4445 35.3218 93.9074C34.507 94.3704 33.4977 94.2593 32.294 93.5648L6.8125 78.8519C5.6088 78.1574 4.59957 77.1019 3.78476 75.7037C2.96994 74.2963 2.5625 72.9074 2.5625 71.5278V42.2778C2.5625 40.8982 2.96994 39.9815 3.78476 39.5186L4.03472 39.3982C4.80324 39.0741 5.72917 39.2408 6.8125 39.8611C8.0162 40.5556 9.02548 41.6019 9.84026 43.0093C10.6551 44.4167 11.0625 45.8056 11.0625 47.1852V64.7315L21.0811 59.0186L29.581 54.176L64.5717 34.2223L49.2847 25.3889C48.081 24.6945 47.0718 23.6482 46.257 22.2408C45.4422 20.8426 45.0347 19.4445 45.0347 18.0649C45.0347 16.6852 45.4422 15.7593 46.257 15.2963L46.5069 15.176C47.2754 14.8611 48.2014 15.0186 49.2847 15.6482L74.2014 30.0371L74.7662 30.3611C75.9699 31.0556 76.9792 32.1019 77.7941 33.5093C78.6089 34.9074 79.0163 36.3056 79.0163 37.6852Z" fill="url(#paint0_linear_1_2996)"></path><path d="M29.5854 37.9266V54.1766L21.0854 59.0192L11.0668 64.7322V47.1859C11.0668 45.8063 10.6594 44.4174 9.84463 43.01C9.02981 41.6026 8.02054 40.5563 6.81684 39.8618C5.73351 39.2415 4.80758 39.0748 4.03906 39.3989L22.3076 30.26C23.1224 29.7877 24.1317 29.9081 25.3354 30.6026C26.5391 31.297 27.5483 32.3433 28.3631 33.7507C29.178 35.1581 29.5854 36.547 29.5854 37.9266Z" fill="url(#paint1_linear_1_2996)"></path><path d="M70.5171 44.4727V45.7782L35.5263 65.7319L26.48 70.2597L17.0078 74.9912L25.8967 69.9171L70.5171 44.4727Z" fill="url(#paint2_linear_1_2996)"></path><path d="M55.0634 81.8786C55.0634 83.2582 54.656 84.1842 53.8411 84.6471L53.5911 84.7676L35.3226 93.9064C36.1374 93.4434 36.5448 92.5175 36.5448 91.1379C36.5448 89.7582 36.1374 88.3694 35.3226 86.962C34.5078 85.5545 33.4986 84.5082 32.2948 83.8138L17.0078 74.9897L26.48 70.2582L35.5263 65.7305L50.8134 74.5545C52.0171 75.249 53.0263 76.2953 53.8411 77.7027C54.656 79.1101 55.0634 80.499 55.0634 81.8786Z" fill="url(#paint3_linear_1_2996)"></path><path d="M97.5356 28.4248V57.6656C97.5356 59.0452 97.1282 59.9711 96.3134 60.4341L96.0634 60.5545L77.7948 69.6933C78.6097 69.2304 79.0171 68.3045 79.0171 66.9248V37.6841C79.0171 36.3045 78.6097 34.9063 77.7948 33.5082C76.98 32.1008 75.9708 31.0545 74.7671 30.36L74.2023 30.0359L49.2856 15.6471C48.2023 15.0174 47.2763 14.86 46.5078 15.1748L64.7763 6.03592C65.5911 5.57296 66.6004 5.69333 67.8041 6.38777L93.2856 21.1008C94.4893 21.7952 95.4986 22.8415 96.3134 24.2489C97.1282 25.647 97.5356 27.0452 97.5356 28.4248Z" fill="url(#paint4_linear_1_2996)"></path><defs><linearGradient id="paint0_linear_1_2996" x1="2.5625" y1="54.6027" x2="79.0163" y2="54.6027" gradientUnits="userSpaceOnUse"><stop stop-color="#FF6B00"></stop><stop offset="1" stop-color="#FFB580"></stop></linearGradient><linearGradient id="paint1_linear_1_2996" x1="4.03906" y1="47.3544" x2="29.5854" y2="47.3544" gradientUnits="userSpaceOnUse"><stop stop-color="#B34B00"></stop><stop offset="1" stop-color="#FF6B00"></stop></linearGradient><linearGradient id="paint2_linear_1_2996" x1="17.0078" y1="59.7319" x2="70.5171" y2="59.7319" gradientUnits="userSpaceOnUse"><stop stop-color="#FF6B00"></stop><stop offset="1" stop-color="#FFB580"></stop></linearGradient><linearGradient id="paint3_linear_1_2996" x1="17.0078" y1="79.8184" x2="55.0634" y2="79.8184" gradientUnits="userSpaceOnUse"><stop stop-color="#B34B00"></stop><stop offset="1" stop-color="#FF6B00"></stop></linearGradient><linearGradient id="paint4_linear_1_2996" x1="46.5078" y1="37.7266" x2="97.5356" y2="37.7266" gradientUnits="userSpaceOnUse"><stop stop-color="#B34B00"></stop><stop offset="1" stop-color="#FF6B00"></stop></linearGradient></defs></svg> 