<?xml version="1.0" encoding="UTF-8"?> <svg xmlns="http://www.w3.org/2000/svg" width="100" height="100" viewBox="0 0 100 100" fill="none"><path d="M69.6662 94.0354C69.7093 95.6388 69.2266 96.7251 68.2266 97.294C67.3041 97.8199 66.1404 97.6733 64.7179 96.8544C63.2955 96.0354 62.1317 94.8285 61.2093 93.2509L42.1404 60.5007L41.6662 59.6818L37.1231 62.2421L22.1231 70.6818C21.2007 71.2076 20.0541 71.0956 18.6749 70.3456C17.2955 69.5956 16.1059 68.3542 15.1059 66.6301C14.1835 65.0438 13.7266 63.4404 13.7266 61.8111C13.7266 60.1818 14.1835 59.1042 15.1059 58.5783L38.1576 45.4404L38.4421 45.3025C38.8559 45.1214 39.3128 45.0697 39.7869 45.1559C40.011 45.1904 40.2352 45.2507 40.4679 45.3283C40.8472 45.4576 41.2438 45.6387 41.6662 45.88C42.33 46.268 42.9593 46.7507 43.5455 47.3283C44.1317 47.8973 44.6748 48.6214 45.1748 49.4835L49.2438 56.5007L68.2266 89.2509C69.1404 90.8285 69.6231 92.4233 69.6662 94.0354Z" fill="url(#paint0_linear_1_3006)"></path><path d="M42.1422 60.4987L39.3664 62.059L22.125 70.6797L37.125 62.24L41.6682 59.6797L42.1422 60.4987Z" fill="url(#paint1_linear_1_3006)"></path><path d="M86.9031 85.413C86.9462 87.0166 86.4634 88.1028 85.4634 88.6718L85.1876 88.8097L68.2221 97.2925C69.2221 96.7235 69.7048 95.6373 69.6617 94.0338C69.6186 92.4218 69.1359 90.827 68.2221 89.2494L49.2393 56.4992L45.1703 49.4819C44.6703 48.6199 44.1272 47.8957 43.541 47.3268C42.9548 46.7492 42.3255 46.2664 41.6617 45.8785C41.2393 45.6371 40.8428 45.4561 40.4634 45.3268C40.2307 45.2492 40.0065 45.1888 39.7823 45.1544C39.3082 45.0682 38.8513 45.1199 38.4375 45.3009L50.0066 39.5078L50.1703 39.7923L57.2652 51.982L61.2048 58.7406C62.1272 60.3268 63.291 61.5337 64.7134 62.3526C65.0841 62.5682 65.4289 62.7319 65.7651 62.8526C66.722 63.2061 67.541 63.1802 68.2221 62.7923L73.5754 60.1199L85.4634 80.6285C86.3772 82.2061 86.86 83.8009 86.9031 85.413Z" fill="url(#paint2_linear_1_3006)"></path><path d="M42.1422 25.9996L39.3664 27.56L22.125 36.1807L37.1336 27.7324L41.6682 25.1807L42.1422 25.9996Z" fill="url(#paint3_linear_1_3006)"></path><path d="M69.6662 59.5259C69.7093 61.138 69.2266 62.2242 68.2266 62.7931C67.5455 63.1811 66.7266 63.2069 65.7697 62.8535C65.4335 62.7328 65.0886 62.569 64.7179 62.3535C63.2955 61.5345 62.1317 60.3276 61.2093 58.7414L57.2697 51.9828L50.1748 39.7931L50.011 39.5087L42.1404 26L41.6662 25.1811L37.1317 27.7328L22.1231 36.1811C21.2007 36.6983 20.0541 36.5862 18.6749 35.8449C17.2955 35.0949 16.1059 33.8535 15.1059 32.1293C14.1835 30.5431 13.7266 28.9311 13.7266 27.3018C13.7266 25.6725 14.1835 24.6035 15.1059 24.0776L38.1576 10.9311L38.4421 10.7931C38.8559 10.6207 39.3128 10.569 39.7869 10.6552C40.011 10.6897 40.2352 10.75 40.4679 10.8276C40.8472 10.9569 41.2438 11.138 41.6662 11.3793C42.33 11.7673 42.9593 12.2414 43.5455 12.819C44.1317 13.3966 44.6748 14.1207 45.1748 14.9828L49.2438 22L57.7869 36.7328L68.2266 54.7414C69.1404 56.3276 69.6231 57.9225 69.6662 59.5259Z" fill="url(#paint4_linear_1_3006)"></path><path d="M86.9031 50.9055C86.9462 52.5176 86.4634 53.6038 85.4634 54.1727L85.1876 54.3107L73.5754 60.121L68.2221 62.7934C69.2221 62.2244 69.7048 61.1382 69.6617 59.5262C69.6186 57.9227 69.1359 56.3279 68.2221 54.7417L57.7823 36.7331L49.2393 22.0003L45.1703 14.9831C44.6703 14.121 44.1272 13.3969 43.541 12.8193C42.9548 12.2417 42.3255 11.7676 41.6617 11.3796C41.2393 11.1382 40.8428 10.9572 40.4634 10.8279C40.2307 10.7503 40.0065 10.69 39.7823 10.6555C39.3082 10.5693 38.8513 10.621 38.4375 10.7934L55.3945 2.31064C55.8945 2.02615 56.4375 1.93133 57.0237 2.03477C57.6099 2.1296 58.2307 2.37098 58.9031 2.75891C59.5669 3.14684 60.1962 3.62098 60.7824 4.19857C61.3686 4.77615 61.9116 5.50029 62.4116 6.36236L85.4634 46.121C86.3772 47.7072 86.86 49.302 86.9031 50.9055Z" fill="url(#paint5_linear_1_3006)"></path><defs><linearGradient id="paint0_linear_1_3006" x1="13.7266" y1="71.3588" x2="69.6689" y2="71.3588" gradientUnits="userSpaceOnUse"><stop stop-color="#FF6B00"></stop><stop offset="1" stop-color="#FFB580"></stop></linearGradient><linearGradient id="paint1_linear_1_3006" x1="22.125" y1="65.1797" x2="42.1422" y2="65.1797" gradientUnits="userSpaceOnUse"><stop stop-color="#FF6B00"></stop><stop offset="1" stop-color="#FFB580"></stop></linearGradient><linearGradient id="paint2_linear_1_3006" x1="38.4375" y1="68.4001" x2="86.9058" y2="68.4001" gradientUnits="userSpaceOnUse"><stop stop-color="#B34B00"></stop><stop offset="1" stop-color="#FF6B00"></stop></linearGradient><linearGradient id="paint3_linear_1_3006" x1="22.125" y1="30.6807" x2="42.1422" y2="30.6807" gradientUnits="userSpaceOnUse"><stop stop-color="#FF6B00"></stop><stop offset="1" stop-color="#FFB580"></stop></linearGradient><linearGradient id="paint4_linear_1_3006" x1="13.7266" y1="36.8583" x2="69.6689" y2="36.8583" gradientUnits="userSpaceOnUse"><stop stop-color="#FF6B00"></stop><stop offset="1" stop-color="#FFB580"></stop></linearGradient><linearGradient id="paint5_linear_1_3006" x1="38.4375" y1="32.3938" x2="86.9058" y2="32.3938" gradientUnits="userSpaceOnUse"><stop stop-color="#B34B00"></stop><stop offset="1" stop-color="#FF6B00"></stop></linearGradient></defs></svg> 