<?xml version="1.0" encoding="UTF-8"?> <svg xmlns="http://www.w3.org/2000/svg" width="100" height="100" viewBox="0 0 100 100" fill="none"><path d="M74.0009 66.1255C73.7847 64.684 73.5143 63.2336 73.172 61.7741C72.8206 60.2336 72.4063 58.684 71.9198 57.1165C70.145 51.3687 67.7396 45.8732 64.6946 40.621C61.6495 35.3687 58.073 30.5399 53.9558 26.1255C49.8387 21.7111 45.4422 18.1525 40.7666 15.4498C36.3251 12.8913 32.145 11.3958 28.2261 10.9543C28.0099 10.9273 27.7937 10.9093 27.5775 10.8913C24.082 10.612 20.9648 11.0624 18.244 12.2876L16.8385 12.9904C13.7935 14.7201 11.3791 17.4408 9.60431 21.1345C7.82954 24.8372 6.93768 29.3687 6.93768 34.7381C6.93768 40.1075 7.82954 45.666 9.60431 51.4138C11.3791 57.1615 13.7935 62.657 16.8385 67.9093C19.8746 73.1615 23.4603 77.9903 27.5775 82.4048C31.6856 86.8192 36.0819 90.3777 40.7666 93.0714C45.4422 95.7741 49.8387 97.2967 53.9558 97.639C58.073 97.9723 61.6495 97.2786 64.6946 95.5399C67.4063 93.9904 69.6133 91.666 71.316 88.5579C71.5322 88.1795 71.7306 87.7922 71.9198 87.3867C73.7036 83.6931 74.5864 79.1615 74.5864 73.7922C74.5864 71.2786 74.3973 68.7291 74.0009 66.1255ZM25.2982 31.5489C25.2982 31.5489 25.3252 31.5399 25.3342 31.5309C26.3162 30.9633 27.5144 31.0895 28.9288 31.9003C30.3342 32.7201 31.5324 33.9723 32.5234 35.675C33.5054 37.3777 34.0008 39.0354 34.0008 40.657C34.0008 42.2786 33.5054 43.3597 32.5234 43.9273C31.5324 44.4858 30.3342 44.3597 28.9288 43.5489C28.5054 43.3057 28.0999 43.0174 27.7125 42.684C26.8116 41.9363 26.0189 40.9633 25.3342 39.7741C24.3432 38.0714 23.8566 36.4138 23.8566 34.8012C23.8566 33.1886 24.3342 32.1165 25.2982 31.5489ZM55.7306 75.5219C54.3793 77.0985 52.6674 77.9904 50.5953 78.2246C50.1629 78.2786 49.7214 78.2967 49.262 78.2877C46.5863 78.2246 43.7485 77.3327 40.7666 75.612C37.7215 73.8552 34.8566 71.4408 32.181 68.3777C29.5053 65.3057 27.3521 61.8462 25.7125 57.9904C25.0909 56.603 25.0098 55.5129 25.4603 54.7381C25.9107 53.9633 26.6404 53.8732 27.6585 54.4588C28.1089 54.7201 28.5144 55.0714 28.8838 55.5039C29.2531 55.9453 29.5775 56.4678 29.8567 57.0895C31.154 59.8372 32.7576 62.3327 34.6765 64.5759C36.5954 66.8102 38.6224 68.5489 40.7666 69.7922C41.6945 70.3237 42.5954 70.7381 43.4783 71.0354C44.6404 71.4318 45.7666 71.621 46.8566 71.603C48.7666 71.5759 50.3793 70.9363 51.6766 69.684C51.9018 69.3597 52.1901 69.1885 52.5594 69.1795C52.9288 69.1615 53.3341 69.2877 53.7846 69.5399C54.8026 70.1345 55.5324 71.0894 55.9829 72.4138C56.4333 73.7381 56.3522 74.7741 55.7306 75.5219ZM56.1991 57.594C55.8207 57.8012 55.4062 57.9183 54.9648 57.9273C54.2621 57.9633 53.4693 57.7201 52.6045 57.2156C51.1901 56.4048 49.9919 55.1435 49.0099 53.4408C48.0189 51.7471 47.5323 50.0804 47.5323 48.4678C47.5323 48.1345 47.5504 47.8192 47.6045 47.5309C47.7576 46.4138 48.2261 45.639 49.0099 45.1976C49.9919 44.639 51.1901 44.7561 52.6045 45.5759C54.0099 46.3867 55.2081 47.648 56.1991 49.3507C57.1811 51.0444 57.6765 52.7111 57.6765 54.3237C57.6765 55.9363 57.1811 57.0354 56.1991 57.594Z" fill="url(#paint0_linear_1_3040)"></path><path d="M55.7318 75.5221C54.3804 77.0986 52.6685 77.9905 50.5964 78.2248C50.164 78.2788 49.7226 78.2968 49.2631 78.2878C46.5874 78.2248 43.7497 77.3329 40.7677 75.6122C37.7227 73.8554 34.8578 71.441 32.1821 68.3779C29.5064 65.3059 27.3533 61.8464 25.7137 57.9905C25.092 56.6031 25.011 55.5131 25.4614 54.7383C25.9119 53.9635 26.6415 53.8734 27.6595 54.459C28.11 54.7203 28.5155 55.0716 28.8848 55.504C29.2542 55.9455 29.5786 56.468 29.8579 57.0896C31.1552 59.8374 32.7587 62.3329 34.6776 64.5761C36.5965 66.8104 38.6236 68.5491 40.7677 69.7923C41.6956 70.3239 42.5965 70.7383 43.4794 71.0356C44.6416 71.432 45.7677 71.6212 46.8578 71.6031C48.7677 71.5761 50.3804 70.9365 51.6777 69.6842C51.9029 69.3599 52.1912 69.1887 52.5606 69.1797C52.93 69.1617 53.3352 69.2878 53.7856 69.5401C54.8037 70.1347 55.5336 71.0896 55.984 72.414C56.4345 73.7383 56.3534 74.7743 55.7318 75.5221Z" fill="url(#paint1_linear_1_3040)"></path><path d="M34.0035 40.6577C34.0035 42.2703 33.5081 43.3604 32.5261 43.928C31.5351 44.4865 30.3369 44.3604 28.9315 43.5496C28.5081 43.3063 28.1026 43.0181 27.7152 42.6847C26.8143 41.937 26.0216 40.964 25.3369 39.7748C24.346 38.0721 23.8594 36.4145 23.8594 34.8018C23.8594 33.1892 24.3369 32.1172 25.3009 31.5496C25.3099 31.5496 25.3279 31.5405 25.3369 31.5315C26.3189 30.9639 27.5171 31.0901 28.9315 31.9009C30.3369 32.7208 31.5351 33.973 32.5261 35.6757C33.5081 37.3784 34.0035 39.0361 34.0035 40.6577Z" fill="url(#paint2_linear_1_3040)"></path><path d="M57.6754 54.325C57.6754 55.9467 57.18 57.0368 56.198 57.5953C55.8196 57.8025 55.4051 57.9196 54.9637 57.9286C54.261 57.9647 53.4683 57.7214 52.6034 57.2169C51.189 56.4061 49.9908 55.1449 49.0088 53.4422C48.0178 51.7485 47.5312 50.0818 47.5312 48.4692C47.5312 48.1359 47.5494 47.8205 47.6034 47.5322C47.7566 46.4151 48.225 45.6404 49.0088 45.1989C49.9908 44.6404 51.189 44.7575 52.6034 45.5773C54.0088 46.3881 55.207 47.6494 56.198 49.3521C57.18 51.0458 57.6754 52.7124 57.6754 54.325Z" fill="url(#paint3_linear_1_3040)"></path><path d="M92.6025 64.7847C92.6025 70.1541 91.7198 74.6856 89.936 78.3793C88.1612 82.082 85.7558 84.7937 82.7107 86.5325L81.3053 87.2352L64.6927 95.5415C67.4044 93.9919 69.6115 91.6676 71.3142 88.5595C71.5304 88.1811 71.7288 87.7937 71.918 87.3883C73.7017 83.6946 74.5845 79.1631 74.5845 73.7937C74.5845 71.2802 74.3954 68.7307 73.999 66.1271C73.7828 64.6856 73.5125 63.2352 73.1701 61.7757C72.8188 60.2352 72.4044 58.6856 71.918 57.1181C70.1432 51.3703 67.7378 45.8748 64.6927 40.6226C61.6477 35.3703 58.0711 30.5415 53.954 26.1271C49.8369 21.7126 45.4404 18.1541 40.7647 15.4514C36.3233 12.8928 32.1432 11.3973 28.2243 10.9559C28.008 10.9289 27.7918 10.9108 27.5756 10.8928C24.0801 10.6135 20.9629 11.064 18.2422 12.2892L34.8547 3.98289C37.8907 2.24415 41.4765 1.55047 45.5936 1.8838C49.7017 2.22614 54.098 3.73965 58.7827 6.44236C63.4584 9.14508 67.8549 12.7036 71.972 17.1181C76.0891 21.5325 79.6657 26.3613 82.7107 31.6135C85.7558 36.8658 88.1612 42.3613 89.936 48.109C91.7198 53.8568 92.6025 59.4154 92.6025 64.7847Z" fill="url(#paint4_linear_1_3040)"></path><defs><linearGradient id="paint0_linear_1_3040" x1="6.93768" y1="54.2657" x2="74.5864" y2="54.2657" gradientUnits="userSpaceOnUse"><stop stop-color="#FF6B00"></stop><stop offset="1" stop-color="#FFB580"></stop></linearGradient><linearGradient id="paint1_linear_1_3040" x1="25.1758" y1="66.1846" x2="56.2696" y2="66.1846" gradientUnits="userSpaceOnUse"><stop stop-color="#B34B00"></stop><stop offset="1" stop-color="#FF6B00"></stop></linearGradient><linearGradient id="paint2_linear_1_3040" x1="23.8594" y1="37.7262" x2="34.0035" y2="37.7262" gradientUnits="userSpaceOnUse"><stop stop-color="#B34B00"></stop><stop offset="1" stop-color="#FF6B00"></stop></linearGradient><linearGradient id="paint3_linear_1_3040" x1="47.5312" y1="51.3933" x2="57.6754" y2="51.3933" gradientUnits="userSpaceOnUse"><stop stop-color="#B34B00"></stop><stop offset="1" stop-color="#FF6B00"></stop></linearGradient><linearGradient id="paint4_linear_1_3040" x1="18.2422" y1="48.6721" x2="92.6025" y2="48.6721" gradientUnits="userSpaceOnUse"><stop stop-color="#B34B00"></stop><stop offset="1" stop-color="#FF6B00"></stop></linearGradient></defs></svg> 