<?xml version="1.0" encoding="UTF-8"?> <svg xmlns="http://www.w3.org/2000/svg" width="100" height="100" viewBox="0 0 100 100" fill="none"><path d="M68.8441 93.3547C68.8441 95.5052 68.1715 96.9654 66.8441 97.7264C65.5078 98.4875 63.8973 98.3282 62.0212 97.2485C60.1451 96.16 58.5433 94.4698 57.207 92.1689C55.8707 89.8592 55.207 87.6292 55.207 85.4788C55.207 83.3284 55.8707 81.8682 57.207 81.1071C58.5433 80.3461 60.1451 80.5054 62.0212 81.5939C63.8973 82.6735 65.5078 84.3726 66.8441 86.6735C68.1715 88.9742 68.8441 91.2043 68.8441 93.3547Z" fill="url(#paint0_linear_1_3017)"></path><path d="M48.3842 81.5403C48.3842 83.6907 47.7116 85.1509 46.3754 85.9119C45.0391 86.673 43.4373 86.5137 41.5612 85.4341C39.6851 84.3456 38.0834 82.6553 36.7471 80.3544C35.4108 78.0447 34.7383 75.8234 34.7383 73.6642C34.7383 71.5049 35.4108 70.0535 36.7471 69.2925L37.1631 69.0889C38.4197 68.5757 39.8798 68.8146 41.5612 69.7792C43.4373 70.8588 45.0391 72.558 46.3754 74.8589C47.7116 77.1597 48.3842 79.3898 48.3842 81.5403Z" fill="url(#paint1_linear_1_3017)"></path><path d="M27.9272 69.7258C27.9272 71.8851 27.2546 73.3364 25.9184 74.0975C24.5821 74.8586 22.9803 74.6993 21.1042 73.6196C19.2281 72.5311 17.6264 70.8409 16.2901 68.54C14.9538 66.2302 14.2812 64.009 14.2812 61.8497C14.2812 59.6904 14.9538 58.2479 16.2901 57.4869L16.7149 57.2745C17.9627 56.7612 19.4228 57.0001 21.1042 57.9647C22.9803 59.0444 24.5821 60.7435 25.9184 63.0444C27.2546 65.3453 27.9272 67.5754 27.9272 69.7258Z" fill="url(#paint2_linear_1_3017)"></path><path d="M27.9272 46.2473C27.9272 48.3977 27.2546 49.8579 25.9184 50.619C24.5821 51.38 22.9803 51.2207 21.1042 50.1411C19.2281 49.0526 17.6264 47.3623 16.2901 45.0615C14.9538 42.7517 14.2812 40.5305 14.2812 38.3712C14.2812 36.2119 14.9538 34.7606 16.2901 33.9995L16.706 33.796C17.9627 33.2827 19.4228 33.5216 21.1042 34.4862C22.9803 35.5659 24.5821 37.265 25.9184 39.5659C27.2546 41.8668 27.9272 44.0969 27.9272 46.2473Z" fill="url(#paint3_linear_1_3017)"></path><path d="M48.3842 58.0619C48.3842 60.2124 47.7116 61.6726 46.3754 62.4336C45.7293 62.8053 45.0215 62.9558 44.2516 62.885C43.4285 62.823 42.5258 62.5133 41.5612 61.9557C39.6851 60.8673 38.0834 59.177 36.7471 56.8673C35.4108 54.5664 34.7383 52.3363 34.7383 50.1858C34.7383 49.6903 34.7737 49.2301 34.8533 48.8053C35.0834 47.3982 35.7206 46.3982 36.7471 45.8142C38.0834 45.0531 39.6851 45.2124 41.5612 46.3009C43.4373 47.3805 45.0391 49.0708 46.3754 51.3805C47.7116 53.6814 48.3842 55.9115 48.3842 58.0619Z" fill="url(#paint4_linear_1_3017)"></path><path d="M68.8441 69.8764C68.8441 72.0268 68.1715 73.487 66.8441 74.2481C66.1981 74.6198 65.4902 74.7702 64.7115 74.6994C63.8884 74.6375 62.9946 74.3189 62.0212 73.7614C60.1451 72.6817 58.5433 70.9914 57.207 68.6817C55.8707 66.3808 55.207 64.1507 55.207 62.0003C55.207 61.5047 55.2424 61.0445 55.3221 60.6198C55.5522 59.2127 56.1805 58.2127 57.207 57.6286C58.5433 56.8675 60.1451 57.0268 62.0212 58.1153C63.8973 59.195 65.5078 60.8852 66.8441 63.195C68.1715 65.4959 68.8441 67.7259 68.8441 69.8764Z" fill="url(#paint5_linear_1_3017)"></path><path d="M68.8441 46.3979C68.8441 48.5483 68.1715 50.0085 66.8441 50.7696C66.1981 51.1412 65.4902 51.2917 64.7115 51.2209C63.8884 51.1589 62.9946 50.8404 62.0212 50.2828C60.1451 49.2032 58.5433 47.5129 57.207 45.2032C55.8707 42.9023 55.207 40.6722 55.207 38.5218C55.207 38.0262 55.2424 37.566 55.3221 37.1412C55.5522 35.7342 56.1805 34.7342 57.207 34.1501C58.5433 33.389 60.1451 33.5483 62.0212 34.6368C63.8973 35.7165 65.5078 37.4067 66.8441 39.7165C68.1715 42.0173 68.8441 44.2474 68.8441 46.3979Z" fill="url(#paint6_linear_1_3017)"></path><path d="M48.3842 34.5834C48.3842 36.7339 47.7116 38.194 46.3754 38.9551C45.7293 39.3268 45.0215 39.4772 44.2516 39.4064C43.4197 39.3445 42.5347 39.0259 41.5612 38.4684C39.6851 37.3887 38.0834 35.6985 36.7471 33.3887C35.4108 31.0879 34.7383 28.8578 34.7383 26.7073C34.7383 26.2117 34.7737 25.7516 34.8533 25.3268C35.0834 23.9197 35.7206 22.9197 36.7471 22.3356C38.0834 21.5746 39.6851 21.7339 41.5612 22.8224C43.4373 23.902 45.0391 25.5923 46.3754 27.902C47.7116 30.2029 48.3842 32.433 48.3842 34.5834Z" fill="url(#paint7_linear_1_3017)"></path><path d="M27.9272 22.769C27.9272 24.9194 27.2546 26.3796 25.9184 27.1407C24.5821 27.9017 22.9803 27.7424 21.1042 26.6628C19.2281 25.5743 17.6264 23.884 16.2901 21.5743C14.9538 19.2734 14.2812 17.0433 14.2812 14.8929C14.2812 12.7424 14.9538 11.2822 16.2901 10.5212C17.6264 9.76012 19.2281 9.91942 21.1042 11.0079C22.9803 12.0876 24.5821 13.7778 25.9184 16.0876C27.2546 18.3884 27.9272 20.6185 27.9272 22.769Z" fill="url(#paint8_linear_1_3017)"></path><path d="M85.2916 85.1339C85.2916 87.2843 84.619 88.7442 83.2827 89.5053L66.8402 97.7265C68.1676 96.9654 68.8402 95.5053 68.8402 93.3548C68.8402 91.2044 68.1676 88.9743 66.8402 86.6737C65.5039 84.3728 63.8934 82.6737 62.0173 81.594C60.1412 80.5055 58.5394 80.3462 57.2031 81.1073L73.6544 72.8861C74.9818 72.125 76.5924 72.2843 78.4685 73.3639C80.3446 74.4524 81.9464 76.1427 83.2827 78.4524C84.619 80.7533 85.2916 82.9834 85.2916 85.1339Z" fill="url(#paint9_linear_1_3017)"></path><path d="M64.7127 74.6982C64.4826 76.1053 63.8543 77.1053 62.8278 77.6894L46.3764 85.9106C47.7126 85.1495 48.3852 83.6894 48.3852 81.5389C48.3852 79.3885 47.7126 77.1584 46.3764 74.8575C45.0401 72.5566 43.4383 70.8575 41.5622 69.7779C39.8808 68.8132 38.4207 68.5743 37.1641 69.0876L53.1905 61.0699C53.8365 60.6982 54.5446 60.5478 55.3234 60.6186C55.2437 61.0433 55.2083 61.5035 55.2083 61.9991C55.2083 64.1495 55.872 66.3796 57.2083 68.6805C58.5446 70.9902 60.1464 72.6805 62.0225 73.7602C62.9959 74.3177 63.8897 74.6363 64.7127 74.6982Z" fill="url(#paint10_linear_1_3017)"></path><path d="M44.2508 62.8861C44.0207 64.2932 43.3924 65.2932 42.3658 65.8773L25.9144 74.0985C27.2507 73.3375 27.9233 71.8861 27.9233 69.7268C27.9233 67.5675 27.2507 65.3463 25.9144 63.0454C24.5781 60.7445 22.9764 59.0454 21.1003 57.9658C19.4189 57.0012 17.9587 56.7622 16.7109 57.2755L32.7286 49.2578C33.3746 48.895 34.0826 48.7357 34.8526 48.8065C34.7729 49.2313 34.7375 49.6914 34.7375 50.187C34.7375 52.3374 35.4101 54.5675 36.7464 56.8684C38.0826 59.1782 39.6843 60.8684 41.5604 61.9569C42.525 62.5144 43.4278 62.8242 44.2508 62.8861Z" fill="url(#paint11_linear_1_3017)"></path><path d="M44.2518 39.4076C44.0217 40.8147 43.3934 41.8147 42.3669 42.3988L25.9155 50.62C27.2517 49.8589 27.9243 48.3988 27.9243 46.2483C27.9243 44.0979 27.2517 41.8678 25.9155 39.5669C24.5792 37.266 22.9774 35.5669 21.1013 34.4872C19.4199 33.5226 17.9598 33.2837 16.7031 33.797L32.7296 25.7793C33.3756 25.4165 34.0837 25.2572 34.8536 25.328C34.774 25.7527 34.7386 26.2129 34.7386 26.7085C34.7386 28.8589 35.4111 31.089 36.7474 33.3899C38.0837 35.6996 39.6854 37.3899 41.5615 38.4695C42.5349 39.0271 43.42 39.3457 44.2518 39.4076Z" fill="url(#paint12_linear_1_3017)"></path><path d="M64.7107 51.2216C64.4806 52.6288 63.8523 53.6288 62.8257 54.2129L46.3743 62.4341C47.7106 61.6731 48.3832 60.2128 48.3832 58.0623C48.3832 55.9119 47.7106 53.6818 46.3743 51.3809C45.038 49.0712 43.4363 47.3809 41.5602 46.3013C39.6841 45.2128 38.0824 45.0535 36.7461 45.8146L53.1885 37.5933C53.8345 37.2216 54.5514 37.0712 55.3213 37.142C55.2417 37.5668 55.2063 38.0269 55.2063 38.5225C55.2063 40.673 55.87 42.9031 57.2063 45.2039C58.5426 47.5137 60.1443 49.2039 62.0204 50.2836C62.9939 50.8411 63.8877 51.1597 64.7107 51.2216Z" fill="url(#paint13_linear_1_3017)"></path><path d="M85.2916 61.6563C85.2916 63.8068 84.619 65.2669 83.2827 66.028L82.8668 66.2315L66.8402 74.2492C68.1676 73.4882 68.8402 72.028 68.8402 69.8776C68.8402 67.7271 68.1676 65.497 66.8402 63.1961C65.5039 60.8864 63.8934 59.1961 62.0173 58.1165C60.1412 57.028 58.5394 56.8687 57.2031 57.6298L73.6544 49.4085C74.9818 48.6475 76.5924 48.8068 78.4685 49.8864C80.3446 50.9749 81.9464 52.6652 83.2827 54.966C84.619 57.2758 85.2916 59.497 85.2916 61.6563Z" fill="url(#paint14_linear_1_3017)"></path><path d="M85.2916 38.1778C85.2916 40.3282 84.619 41.7796 83.2827 42.5406L82.858 42.753L66.8402 50.7707C68.1676 50.0097 68.8402 48.5495 68.8402 46.399C68.8402 44.2486 68.1676 42.0185 66.8402 39.7176C65.5039 37.4079 63.8934 35.7176 62.0173 34.638C60.1412 33.5495 58.5394 33.3902 57.2031 34.1512L73.6544 25.93C74.9818 25.169 76.5924 25.3282 78.4685 26.4079C80.3446 27.4964 81.9464 29.1866 83.2827 31.4875C84.619 33.7973 85.2916 36.0185 85.2916 38.1778Z" fill="url(#paint15_linear_1_3017)"></path><path d="M64.8257 26.3633C64.8257 28.5138 64.162 29.974 62.8257 30.735L62.4098 30.9386L46.3743 38.9563C47.7106 38.1952 48.3832 36.735 48.3832 34.5846C48.3832 32.4341 47.7106 30.2041 46.3743 27.9032C45.038 25.5934 43.4363 23.9032 41.5602 22.8235C39.6841 21.735 38.0824 21.5757 36.7461 22.3368L53.1885 14.1156C54.5248 13.3545 56.1354 13.5138 58.0115 14.5934C59.8876 15.6819 61.4895 17.3722 62.8257 19.6731C64.162 21.9828 64.8257 24.2041 64.8257 26.3633Z" fill="url(#paint16_linear_1_3017)"></path><path d="M44.3687 14.5489C44.3687 16.6994 43.705 18.1595 42.3687 18.9206L25.9174 27.1418C27.2537 26.3808 27.9262 24.9206 27.9262 22.7702C27.9262 20.6197 27.2537 18.3896 25.9174 16.0888C24.5811 13.779 22.9793 12.0888 21.1032 11.0091C19.2271 9.92061 17.6253 9.76132 16.2891 10.5224L32.7315 2.30111C34.0678 1.54004 35.6785 1.69934 37.5546 2.77898C39.4307 3.86748 41.0324 5.55774 42.3687 7.85863C43.705 10.1684 44.3687 12.3985 44.3687 14.5489Z" fill="url(#paint17_linear_1_3017)"></path><defs><linearGradient id="paint0_linear_1_3017" x1="55.207" y1="89.4171" x2="68.8441" y2="89.4171" gradientUnits="userSpaceOnUse"><stop stop-color="#FF6B00"></stop><stop offset="1" stop-color="#FFB580"></stop></linearGradient><linearGradient id="paint1_linear_1_3017" x1="34.7383" y1="77.6046" x2="48.3842" y2="77.6046" gradientUnits="userSpaceOnUse"><stop stop-color="#FF6B00"></stop><stop offset="1" stop-color="#FFB580"></stop></linearGradient><linearGradient id="paint2_linear_1_3017" x1="14.2812" y1="65.7901" x2="27.9272" y2="65.7901" gradientUnits="userSpaceOnUse"><stop stop-color="#FF6B00"></stop><stop offset="1" stop-color="#FFB580"></stop></linearGradient><linearGradient id="paint3_linear_1_3017" x1="14.2812" y1="42.3116" x2="27.9272" y2="42.3116" gradientUnits="userSpaceOnUse"><stop stop-color="#FF6B00"></stop><stop offset="1" stop-color="#FFB580"></stop></linearGradient><linearGradient id="paint4_linear_1_3017" x1="34.7383" y1="54.1224" x2="48.3842" y2="54.1224" gradientUnits="userSpaceOnUse"><stop stop-color="#FF6B00"></stop><stop offset="1" stop-color="#FFB580"></stop></linearGradient><linearGradient id="paint5_linear_1_3017" x1="55.207" y1="65.9368" x2="68.8441" y2="65.9368" gradientUnits="userSpaceOnUse"><stop stop-color="#FF6B00"></stop><stop offset="1" stop-color="#FFB580"></stop></linearGradient><linearGradient id="paint6_linear_1_3017" x1="55.207" y1="42.4583" x2="68.8441" y2="42.4583" gradientUnits="userSpaceOnUse"><stop stop-color="#FF6B00"></stop><stop offset="1" stop-color="#FFB580"></stop></linearGradient><linearGradient id="paint7_linear_1_3017" x1="34.7383" y1="30.6438" x2="48.3842" y2="30.6438" gradientUnits="userSpaceOnUse"><stop stop-color="#FF6B00"></stop><stop offset="1" stop-color="#FFB580"></stop></linearGradient><linearGradient id="paint8_linear_1_3017" x1="14.2812" y1="18.8312" x2="27.9272" y2="18.8312" gradientUnits="userSpaceOnUse"><stop stop-color="#FF6B00"></stop><stop offset="1" stop-color="#FFB580"></stop></linearGradient><linearGradient id="paint9_linear_1_3017" x1="57.2031" y1="85.0703" x2="85.2916" y2="85.0703" gradientUnits="userSpaceOnUse"><stop stop-color="#B34B00"></stop><stop offset="1" stop-color="#FF6B00"></stop></linearGradient><linearGradient id="paint10_linear_1_3017" x1="37.1641" y1="73.2561" x2="64.7127" y2="73.2561" gradientUnits="userSpaceOnUse"><stop stop-color="#B34B00"></stop><stop offset="1" stop-color="#FF6B00"></stop></linearGradient><linearGradient id="paint11_linear_1_3017" x1="16.7109" y1="61.4443" x2="44.2508" y2="61.4443" gradientUnits="userSpaceOnUse"><stop stop-color="#B34B00"></stop><stop offset="1" stop-color="#FF6B00"></stop></linearGradient><linearGradient id="paint12_linear_1_3017" x1="16.7031" y1="37.9658" x2="44.2518" y2="37.9658" gradientUnits="userSpaceOnUse"><stop stop-color="#B34B00"></stop><stop offset="1" stop-color="#FF6B00"></stop></linearGradient><linearGradient id="paint13_linear_1_3017" x1="36.7461" y1="49.7796" x2="64.7107" y2="49.7796" gradientUnits="userSpaceOnUse"><stop stop-color="#B34B00"></stop><stop offset="1" stop-color="#FF6B00"></stop></linearGradient><linearGradient id="paint14_linear_1_3017" x1="57.2031" y1="61.5929" x2="85.2916" y2="61.5929" gradientUnits="userSpaceOnUse"><stop stop-color="#B34B00"></stop><stop offset="1" stop-color="#FF6B00"></stop></linearGradient><linearGradient id="paint15_linear_1_3017" x1="57.2031" y1="38.1144" x2="85.2916" y2="38.1144" gradientUnits="userSpaceOnUse"><stop stop-color="#B34B00"></stop><stop offset="1" stop-color="#FF6B00"></stop></linearGradient><linearGradient id="paint16_linear_1_3017" x1="36.7461" y1="26.2999" x2="64.8257" y2="26.2999" gradientUnits="userSpaceOnUse"><stop stop-color="#B34B00"></stop><stop offset="1" stop-color="#FF6B00"></stop></linearGradient><linearGradient id="paint17_linear_1_3017" x1="16.2891" y1="14.4855" x2="44.3687" y2="14.4855" gradientUnits="userSpaceOnUse"><stop stop-color="#B34B00"></stop><stop offset="1" stop-color="#FF6B00"></stop></linearGradient></defs></svg> 