<?xml version="1.0" encoding="UTF-8"?> <svg xmlns="http://www.w3.org/2000/svg" width="100" height="100" viewBox="0 0 100 100" fill="none"><path d="M56.5436 86.2763L44.883 82.8818C45.0848 82.9001 45.2958 82.946 45.516 83.0194L56.5436 86.2763ZM56.5436 86.2763L49.5619 80.2671L45.9564 77.1662L45.516 76.79C45.2867 76.5973 45.0757 76.3955 44.8738 76.1845L45.9932 77.157L49.5802 80.2579L56.5436 86.2763ZM43.8555 74.7441C43.8555 74.7441 43.8555 74.7625 43.8738 74.7717H43.8922L43.8555 74.7441Z" fill="url(#paint0_linear_1_3060)"></path><path d="M90.998 86.3944C90.998 87.5228 90.6952 88.2568 90.0989 88.5962L89.9613 88.6605L71.7778 97.7522C72.3558 97.4036 72.6494 96.6788 72.6494 95.5687C72.6494 93.9449 72.0255 92.4219 70.787 90.9907L68.8328 88.743L61.3283 80.1008L57.8604 76.11L52.8145 70.3027L51.6494 68.9632L47.8879 64.6329C46.7595 63.3394 45.6585 62.7522 44.5851 62.8806C44.3283 62.9082 44.0989 62.9816 43.9062 63.0916L51.0529 59.5137L54.5485 63.5412L63.3925 73.7339L63.42 73.7614L66.7136 77.5504L70.3098 75.7522L72.2182 74.7981L79.7595 71.0274L89.1356 81.8164C90.3741 83.2476 90.998 84.7705 90.998 86.3944Z" fill="url(#paint1_linear_1_3060)"></path><path d="M42.983 65.3028V71.5322C42.983 72.4404 43.2031 73.3762 43.6527 74.3487C43.7169 74.4863 43.7811 74.6147 43.8545 74.7432C43.8545 74.7524 43.8545 74.7615 43.8729 74.7707L36.2031 78.6056V54.9634C36.2031 52.0459 37.2765 50.4588 39.4141 50.2111C41.5701 49.9634 43.7719 51.1377 46.0288 53.734L51.0563 59.5138L43.9096 63.0918C43.295 63.4313 42.983 64.1744 42.983 65.3028Z" fill="url(#paint2_linear_1_3060)"></path><path d="M64.7184 20.6331L46.3697 29.8074C46.3697 27.0826 45.5533 24.312 43.9111 21.4863C42.2781 18.6606 40.2688 16.5505 37.8927 15.1836C35.7551 13.9542 33.9202 13.6514 32.3789 14.2844L43.8102 8.55967L50.223 5.35782C51.8561 4.42204 53.8651 4.64224 56.2413 6.00921C58.6174 7.37618 60.6267 9.48631 62.2597 12.312C63.9019 15.1377 64.7184 17.9083 64.7184 20.6331Z" fill="url(#paint3_linear_1_3060)"></path><path d="M43.8071 8.55965L32.3758 14.2844L31.8712 14.5321C30.229 15.4587 29.4125 17.2936 29.4125 20.0183L27.4126 18.8624L15.8437 12.1835C13.9904 11.1101 12.385 10.9541 11.0547 11.7064L29.4033 2.53212C30.7336 1.77982 32.3391 1.93578 34.1923 3.00917L43.8071 8.55965Z" fill="url(#paint4_linear_1_3060)"></path><path d="M66.7177 49.3399V77.551L63.4242 73.762L63.3966 73.7344L54.5526 63.5418L51.0572 59.5143L46.0297 53.7344C43.7728 51.1381 41.5709 49.9638 39.415 50.2115C37.2774 50.4592 36.204 52.0464 36.204 54.9638V78.606C33.9379 77.817 32.1306 77.9913 30.7728 79.1289C29.415 80.2482 28.7361 82.4776 28.7361 85.7803L15.8462 78.34C13.9929 77.2666 12.3874 75.5785 11.0572 73.2941C9.73606 70.9913 9.06641 68.7803 9.06641 66.6427V51.8629C11.782 53.4225 14.158 53.7987 16.1855 53.0005C18.2314 52.1932 19.2407 50.2666 19.2407 47.2207C19.2407 47.0739 19.2407 46.9271 19.2315 46.7803C19.1397 43.8721 18.1305 40.9179 16.1855 37.9271C14.158 34.7711 11.782 32.4042 9.06641 30.8445V16.0555C9.06641 13.9088 9.73606 12.4684 11.0572 11.7069C12.3874 10.9546 13.9929 11.1106 15.8462 12.184L27.4151 18.8629L29.415 20.0188C29.415 17.2941 30.2315 15.4592 31.8737 14.5326L32.3783 14.2849C33.9196 13.6519 35.7544 13.9546 37.892 15.184C40.2682 16.551 42.2774 18.661 43.9104 21.4867C45.5526 24.3124 46.3691 27.0831 46.3691 29.8078L59.9379 37.6427C61.8003 38.7161 63.3966 40.4042 64.7269 42.6886C65.5709 44.1381 66.1398 45.551 66.4517 46.9454C66.626 47.7528 66.7177 48.551 66.7177 49.3399Z" fill="url(#paint5_linear_1_3060)"></path><path d="M85.0645 40.1659V68.3769L72.2205 74.7989L70.3121 75.7531L66.7159 77.5512V49.3402C66.7159 48.5512 66.6241 47.7531 66.4498 46.9457C66.1378 45.5512 65.569 44.1384 64.725 42.6888C63.3947 40.4044 61.7985 38.7164 59.9361 37.643L46.3672 29.8081L64.7158 20.6338L78.2847 28.4687C80.1471 29.542 81.7433 31.2301 83.0736 33.5145C84.4039 35.8081 85.0645 38.0191 85.0645 40.1659Z" fill="url(#paint6_linear_1_3060)"></path><path d="M56.5443 86.2748L45.5168 83.0179C45.2966 82.9445 45.0856 82.8987 44.8837 82.8803C44.6085 82.862 44.3608 82.8895 44.1406 82.9812L49.5625 80.2656L56.5443 86.2748Z" fill="url(#paint7_linear_1_3060)"></path><path d="M49.5807 80.2568L49.5625 80.2659L49.5807 80.2568Z" fill="url(#paint8_linear_1_3060)"></path><path d="M45.9546 77.165L28.7344 85.7797C28.7344 82.4769 29.4133 80.2476 30.7711 79.1283C32.1289 77.9907 33.9362 77.8164 36.2023 78.6054L43.872 74.7705C44.1472 75.2934 44.4775 75.7613 44.872 76.1834C45.0738 76.3944 45.2849 76.5962 45.5143 76.7889L45.9546 77.165Z" fill="url(#paint9_linear_1_3060)"></path><path d="M45.9906 77.1562L45.9531 77.1656L45.9906 77.1562Z" fill="url(#paint10_linear_1_3060)"></path><path d="M72.6502 95.5695C72.6502 96.6796 72.3566 97.4044 71.7786 97.753L71.6502 97.8172C71.4117 97.9365 71.1272 97.9916 70.8061 97.9916L47.8887 97.909C46.7603 97.909 45.6594 97.2209 44.586 95.8539C43.5218 94.4961 42.9805 93.0649 42.9805 91.5696V85.3494C42.9805 84.432 43.2007 83.7623 43.6502 83.3036C43.7878 83.166 43.9346 83.065 44.1089 82.9916H44.1364C44.3566 82.8907 44.6042 82.8632 44.8795 82.8816L56.5401 86.2761L49.5767 80.2577L45.9896 77.1568L44.8703 76.1843C44.4758 75.7623 44.1456 75.2944 43.8704 74.7715H43.8887L43.8519 74.7439C43.7785 74.6155 43.7144 74.4871 43.6502 74.3494C43.2007 73.377 42.9805 72.4412 42.9805 71.5329V65.3036C42.9805 64.1751 43.2924 63.432 43.9071 63.0926C44.0997 62.9825 44.3291 62.9091 44.586 62.8816C45.6594 62.7531 46.7603 63.3403 47.8887 64.6339L51.6501 68.9641L52.8153 70.3036L57.8612 76.1109L61.3291 80.1017L68.8336 88.7439L70.7877 90.9916C72.0262 92.4227 72.6502 93.9457 72.6502 95.5695Z" fill="url(#paint11_linear_1_3060)"></path><path d="M19.2407 47.2197C19.2407 50.2655 18.2314 52.1921 16.1855 52.9995C14.158 53.7976 11.782 53.4215 9.06641 51.8619L19.2315 46.7793C19.2407 46.9261 19.2407 47.0729 19.2407 47.2197Z" fill="url(#paint12_linear_1_3060)"></path><defs><linearGradient id="paint0_linear_1_3060" x1="43.8555" y1="80.5102" x2="56.5436" y2="80.5102" gradientUnits="userSpaceOnUse"><stop stop-color="#FF6B00"></stop><stop offset="1" stop-color="#FFB580"></stop></linearGradient><linearGradient id="paint1_linear_1_3060" x1="43.9062" y1="78.6329" x2="90.998" y2="78.6329" gradientUnits="userSpaceOnUse"><stop stop-color="#B34B00"></stop><stop offset="1" stop-color="#FF6B00"></stop></linearGradient><linearGradient id="paint2_linear_1_3060" x1="36.2031" y1="64.3921" x2="51.0563" y2="64.3921" gradientUnits="userSpaceOnUse"><stop stop-color="#B34B00"></stop><stop offset="1" stop-color="#FF6B00"></stop></linearGradient><linearGradient id="paint3_linear_1_3060" x1="32.3789" y1="17.2982" x2="64.7184" y2="17.2982" gradientUnits="userSpaceOnUse"><stop stop-color="#B34B00"></stop><stop offset="1" stop-color="#FF6B00"></stop></linearGradient><linearGradient id="paint4_linear_1_3060" x1="11.0547" y1="11.0419" x2="43.8071" y2="11.0419" gradientUnits="userSpaceOnUse"><stop stop-color="#B34B00"></stop><stop offset="1" stop-color="#FF6B00"></stop></linearGradient><linearGradient id="paint5_linear_1_3060" x1="9.06641" y1="48.5103" x2="66.7177" y2="48.5103" gradientUnits="userSpaceOnUse"><stop stop-color="#FF6B00"></stop><stop offset="1" stop-color="#FFB580"></stop></linearGradient><linearGradient id="paint6_linear_1_3060" x1="46.3672" y1="49.0925" x2="85.0645" y2="49.0925" gradientUnits="userSpaceOnUse"><stop stop-color="#B34B00"></stop><stop offset="1" stop-color="#FF6B00"></stop></linearGradient><linearGradient id="paint7_linear_1_3060" x1="44.1406" y1="83.2702" x2="56.5443" y2="83.2702" gradientUnits="userSpaceOnUse"><stop stop-color="#B34B00"></stop><stop offset="1" stop-color="#FF6B00"></stop></linearGradient><linearGradient id="paint8_linear_1_3060" x1="49.5625" y1="80.2614" x2="49.5807" y2="80.2614" gradientUnits="userSpaceOnUse"><stop stop-color="#FF6B00"></stop><stop offset="1" stop-color="#FFB580"></stop></linearGradient><linearGradient id="paint9_linear_1_3060" x1="28.7344" y1="80.2751" x2="45.9546" y2="80.2751" gradientUnits="userSpaceOnUse"><stop stop-color="#B34B00"></stop><stop offset="1" stop-color="#FF6B00"></stop></linearGradient><linearGradient id="paint10_linear_1_3060" x1="45.9531" y1="77.1609" x2="45.9906" y2="77.1609" gradientUnits="userSpaceOnUse"><stop stop-color="#FF6B00"></stop><stop offset="1" stop-color="#FFB580"></stop></linearGradient><linearGradient id="paint11_linear_1_3060" x1="42.9805" y1="80.4279" x2="72.6502" y2="80.4279" gradientUnits="userSpaceOnUse"><stop stop-color="#FF6B00"></stop><stop offset="1" stop-color="#FFB580"></stop></linearGradient><linearGradient id="paint12_linear_1_3060" x1="9.06641" y1="50.0926" x2="19.2407" y2="50.0926" gradientUnits="userSpaceOnUse"><stop stop-color="#B34B00"></stop><stop offset="1" stop-color="#FF6B00"></stop></linearGradient></defs></svg> 